<svg xmlns="http://www.w3.org/2000/svg" width="512" height="512" viewBox="0 0 512 512"><g fill="#008cdb"><path d="M446.023 174.554c11.207.389 19.973 9.806 19.604 21.012-.164 5.408-2.455 10.429-6.412 14.133-3.975 3.69-9.135 5.614-14.582 5.446-11.182-.407-19.953-9.829-19.582-21.031.162-5.432 2.477-10.447 6.434-14.133 3.951-3.709 9.113-5.633 14.538-5.427zm12.336 16.197c0-3.339-4.041-6.021-9.02-6.021-4.973 0-8.99 2.683-8.99 6.021 0 3.297 4.018 6.004 8.99 6.004 4.983 0 9.02-2.707 9.02-6.004z"/><path d="M491.088 234.728l2.088-.389c18.596 14.573-60.555 35.21-64.268 35.622-20.248 2.258-80.391-15.556-85.354 14.433-3.354 20.142 9.398 38.254 18.844 54.4l-.734.183c-12.602-5.802-28.088-10.349-39.061-18.82-25.334-24.309-45.273-54.583-85.434-44.791-4.729 1.124-10.752 4.585-14.662 8.477-11.768 11.604-9.445 33.154-7.254 47.886l-.711.08c-9.924-5.067-20.014-9.867-30.027-14.765-6.742-32.724-30.652-63.514-65.053-69.456-17.715-3.049-50.014-3.396-67.115 28.884-7.15 13.477-6.719 31.028 1.125 45.816 7.988 15.135 22.262 24.843 39.158 26.706 16.754 1.826 29.352-2.046 36.418-11.201 7.131-9.239 8.461-21.812 3.398-32.054-5.426-10.995-13.621-16.84-25.01-17.8-8.658-.777-15.088 2.829-17.406 6.515-1.297 2.041-1.934 4.177-1.924 6.41 0 8.256 7.557 10.508 9.094 10.611 2.959 0 6.115-.834 8.953-1.779 5.488-1.002 10.77 2.233 12.307 7.581 1.207 4.431-.512 9.197-4.383 11.792l.121-.043c-5.264 2.983-11.258 4.59-17.326 4.59-13.064-.019-31.271-11.268-31.52-32.382-.127-11.923 5.857-22.777 16.385-29.76 12.119-8.007 33.078-10.732 52.514 1.186 23.924 14.647 30.17 43.32 23.924 62.881-9.076 28.326-34.592 43.461-68.289 40.454-55.998-5.01-88.225-63.868-67.631-114.902 53.01-131.372 232.293-145.13 347.658-106.754.08-5.273.145-10.648.492-15.852 24.008 2.393 48.762 8.279 71.783 15.552 32.793 10.358 47.863 31.623 53.221 65.799-12.279 10.096-28.295 17.438-44.629 15.978-17.678-1.56-40.758-11.698-68.594-30.026 16.664 39.016 72.529 50.77 108.902 28.938zM473.1 196.16c.535-15.729-11.818-29.001-27.562-29.554-7.623-.267-14.891 2.436-20.463 7.638-5.592 5.203-8.785 12.27-9.053 19.889-.51 15.729 11.814 28.981 27.549 29.553 7.656.268 14.906-2.435 20.479-7.656 5.571-5.203 8.764-12.251 9.05-19.87.535-15.729-.286 7.619 0 0z"/></g></svg>